# xmcd
#
# Track frame offsets:
#	182
#	15775
#	31532
#
# Disc length: 603 seconds
#
# Revision: 0
# Processed by: cddbd v1.5.2PL0 Copyright (c) Steve Scherf et al.
# Submitted via: audiograbber 1.82.02
#
DISCID=0b025903
DTITLE=Truck Stop - Alabama Moon
DYEAR=1996
DGENRE=Country
TTITLE0=Alabama Moon
TTITLE1=Das alte Eisen
TTITLE2=Country Music brennt im Herz
EXTD=
EXTT0=
EXTT1=
EXTT2=
PLAYORDER=
